<svg
    class="arrow"
    width="30"
    height="30"
    viewbox="0 0 30 30"
    xmlns="http://www.w3.org/2000/svg"
    preserveAspectRatio="xMidYMid meet"
    role="img"
    aria-hidden="true"
>
    <g>
      <title>Layer 1</title>
      <g id="svg_3">
        <path
          id="svg_2"
          d="m15,27c-6.62983,0 -12,-5.37017 -12,-12c0,-6.62983 5.37017,-12 12,-12c6.62983,0 12,5.37017 12,12c0,6.62983 -5.37017,12 -12,12z"
          opacity="undefined"
          stroke="currentColor"
          fill="none"
        />
        <path
          id="svg_1"
          d="m15.00014,10.99955a0.5,0.5 0 0 1 0.5,0.5l0,5.793l2.146,-2.147a0.5,0.5 0 0 1 0.708,0.708l-3,3a0.5,0.5 0 0 1 -0.708,0l-3,-3a0.5,0.5 0 1 1 0.708,-0.708l2.146,2.147l0,-5.793a0.5,0.5 0 0 1 0.5,-0.5z"
          fill-rule="evenodd"
          fill="currentColor"
        />
      </g>
    </g>
</svg>